<?xml version="1.0" encoding="utf-8"?>
<!-- Generator: Adobe Illustrator 17.0.0, SVG Export Plug-In . SVG Version: 6.00 Build 0)  -->
<!DOCTYPE svg PUBLIC "-//W3C//DTD SVG 1.1//EN" "https://www.w3.org/Graphics/SVG/1.1/DTD/svg11.dtd">
<svg version="1.1" xmlns="http://www.w3.org/2000/svg" xmlns:xlink="https://www.w3.org/1999/xlink" x="0px" y="0px"
	 width="30px" height="30px" viewBox="0 0 30 30" enable-background="new 0 0 30 30" xml:space="preserve">
<title>FicaOn</title>
<g>
	<circle fill="#FFFFFF" cx="15" cy="15" r="15"/>
	<path fill="#4798D3" d="M6.739,16.055c-0.271-2.916,0.975-5.557,3.04-7.235c0.805-0.655,2.009-0.094,2.009,0.941
		c0,0.38-0.181,0.73-0.474,0.967c-1.464,1.193-2.344,3.074-2.13,5.151c0.279,2.705,2.446,4.895,5.147,5.196
		c3.526,0.395,6.52-2.367,6.52-5.813c0-1.829-0.847-3.465-2.167-4.538c-0.293-0.237-0.47-0.587-0.47-0.963
		c0-1.023,1.185-1.603,1.983-0.963c1.889,1.524,3.1,3.853,3.1,6.464c0,4.775-4.056,8.624-8.906,8.274
		C10.381,23.252,7.112,20.058,6.739,16.055L6.739,16.055z M14.998,5.125c-0.677,0-1.223,0.549-1.223,1.223v5.633
		c0,0.677,0.549,1.223,1.223,1.223c0.673,0,1.223-0.55,1.223-1.223V6.347C16.221,5.674,15.675,5.125,14.998,5.125L14.998,5.125z
		 M14.998,5.125"/>
</g>
</svg>
